<?xml version="1.0" encoding="UTF-8"?>
<svg id="Livello_1" data-name="Livello 1" xmlns="http://www.w3.org/2000/svg" viewBox="0 0 108.66 115.06">
  <path d="m107.75,20.41c-.46-.26-1-.29-1.52-.31-9.74-.48-19.42-2.28-28.68-5.34-1.14-4.14-.91-8.64.66-12.64-5.29,3.2-8.79,9.19-8.98,15.37,0,0,0,0,0,0-3.71-4.97-3.94-12.29-.53-17.48-6.59,5.65-9.58,15.17-7.39,23.57,1.56,5.97,5.38,11.05,8.26,16.5,5.23,9.91-5,18.85-11.47,25.03-4.02,3.84-9.03,8.33-14.55,10.04h0c-3.14.97-6.44,1.04-9.83-.42-.61-.27-1.18-.59-1.71-.96-.09-.07-.18-.14-.27-.22-.16-.12-.33-.25-.48-.38-.11-.09-.2-.2-.3-.29-.13-.12-.26-.24-.38-.37-.1-.1-.19-.22-.28-.32-.12-.13-.24-.26-.35-.4-.07-.09-.14-.2-.21-.29-.12-.16-.24-.32-.35-.49-.08-.13-.16-.26-.24-.39-.09-.15-.18-.29-.27-.44-.08-.15-.16-.31-.24-.46-.07-.14-.15-.28-.21-.42-.09-.19-.17-.39-.25-.59-.05-.11-.1-.22-.14-.33-.09-.22-.17-.45-.24-.68-.03-.09-.07-.18-.1-.28-.08-.23-.14-.47-.21-.7-.03-.09-.06-.18-.08-.28-.06-.22-.11-.44-.16-.65-.03-.12-.06-.23-.09-.35-.05-.21-.09-.42-.13-.63-.02-.13-.05-.26-.08-.38-.04-.24-.08-.49-.11-.73-.01-.1-.03-.2-.05-.29-.04-.26-.06-.53-.09-.79,0-.08-.02-.16-.03-.24-.03-.29-.05-.58-.07-.87,0-.05,0-.1-.01-.16h.02c0-.97-.02-1.99-.07-3.04.07-5.5.6-11.23-2-16.01-2.2-4.04-6.42-6.74-10.89-7.77-4.48-1.03-9.2-.54-13.64.66,4.14,1.26,6.47,5.83,6.81,10.14.34,4.32-.81,8.59-1.29,12.89-.17,1.51-.24,3.05-.22,4.59,0,.23.01.45.02.68,0,.13,0,.25,0,.38h0c0,.15.03.29.03.44.02.31.04.61.07.92.03.33.07.65.11.98.04.3.08.6.12.9.05.33.11.65.17.98.06.29.11.58.18.87.07.33.16.66.25.98.07.28.15.56.23.83.1.33.22.66.33.99.09.26.18.52.28.78.13.34.28.68.43,1.01.1.23.2.47.31.7.18.37.38.73.58,1.09.1.19.2.38.31.56.32.54.66,1.06,1.03,1.57,3.39,4.66,8.84,7.76,14.57,8.3,5.73.54,11.66-1.48,15.86-5.42,0,0,0,0,0,0-6.62,10.43-11.64,22.4-11.16,34.75,1.07-12.72,12.06-23.89,24.76-25.17,3.31-.33,6.75-.04,9.75,1.41,3.74,1.81,6.46,5.3,8.1,9.12,1.85,4.33,2.94,9.51,2.55,14.2.77.14,2.48-5.34,2.83-6.19.97-2.31,1.99-4.61,3.05-6.88,1.96-4.17,4.09-8.26,6.37-12.26h0c2.06-3.61,4.24-7.14,6.56-10.58,4.19-6.24,9-12.84,8.78-20.36-.27-9.5-8.7-16.98-17.65-20.17,9.23-2.06,19.4-5.25,23.84-13.6.73-1.37,1.09-3.42-.26-4.19Z"/>
</svg>